 <svg  version="1.0" xmlns="http://www.w3.org/2000/svg"  width="183.000000pt" height="69.000000pt" viewBox="0 0 183.000000 69.000000"  preserveAspectRatio="xMidYMid meet">  <g transform="translate(0.000000,69.000000) scale(0.100000,-0.100000)" fill="#873c96" stroke="none"> <path d="M210 618 c0 -55 53 -138 89 -138 8 0 -3 -16 -27 -38 -48 -44 -62 -76 -62 -138 0 -36 10 -62 52 -134 29 -50 55 -90 58 -90 3 1 29 41 58 91 57 98 64 140 38 204 -17 40 -64 87 -78 79 -5 -3 -1 -12 9 -20 16 -12 15 -13 -19 -14 -58 0 -55 -19 3 -22 30 -2 54 -8 56 -15 3 -9 -12 -11 -61 -6 -47 4 -66 3 -66 -6 0 -7 24 -11 69 -11 39 0 73 -4 76 -10 4 -6 -23 -10 -74 -10 -47 0 -81 -4 -81 -10 0 -6 33 -10 80 -10 44 0 80 -4 80 -9 0 -17 -21 -23 -36 -10 -12 10 -18 9 -31 -4 -14 -14 -18 -14 -39 0 -19 12 -27 13 -39 3 -17 -14 -35 -5 -35 19 0 47 25 84 97 143 75 61 103 102 103 153 0 40 -17 29 -24 -16 -4 -28 -19 -53 -46 -82 l-39 -42 -23 23 -22 22 42 0 c23 0 42 5 42 10 0 6 -24 10 -54 10 -30 0 -58 5 -61 10 -4 6 20 10 64 10 41 0 71 4 71 10 0 6 -32 10 -75 10 -46 0 -75 4 -75 11 0 6 28 9 78 8 44 -1 75 2 72 7 -3 5 -36 8 -74 6 -56 -2 -71 1 -82 15 -12 16 -13 16 -14 -9z m128 -345 c12 11 22 13 35 6 9 -6 22 -7 27 -4 16 10 12 -3 -16 -51 -24 -40 -29 -44 -65 -44 -35 0 -41 4 -64 43 -28 49 -32 65 -11 48 10 -9 16 -8 26 4 12 14 15 14 31 -1 17 -16 21 -16 37 -1z"/> <path d="M528 469 c-15 -8 -18 -25 -18 -109 0 -116 3 -120 99 -120 54 0 61 2 61 20 0 18 -7 20 -55 20 l-55 0 0 35 c0 35 0 35 45 35 33 0 45 4 45 15 0 11 -12 15 -45 15 -43 0 -45 1 -45 30 0 30 1 30 55 30 48 0 55 2 55 20 0 18 -7 20 -62 20 -35 0 -71 -5 -80 -11z"/> <path d="M808 439 c4 -39 3 -41 -19 -33 -66 22 -99 -3 -99 -76 0 -76 43 -110 100 -80 13 7 21 7 25 0 3 -5 14 -10 23 -10 15 0 17 14 18 120 l1 120 -27 0 c-24 0 -25 -2 -22 -41z m0 -106 c3 -38 1 -43 -22 -49 -35 -9 -46 2 -46 45 0 45 6 53 40 49 22 -3 25 -8 28 -45z"/> <path d="M1124 471 c-11 -5 -27 -23 -34 -40 -17 -43 -9 -144 15 -171 20 -22 65 -26 98 -9 16 9 22 9 25 0 2 -6 13 -11 24 -11 14 0 18 5 14 16 -3 9 -6 40 -6 70 0 52 -1 54 -26 54 -25 0 -26 -2 -20 -44 6 -39 5 -45 -14 -51 -11 -3 -29 -4 -39 0 -27 8 -38 82 -19 122 12 25 19 28 63 29 42 1 50 4 50 20 0 16 -8 19 -55 21 -30 1 -64 -2 -76 -6z"/> <path d="M1343 413 c-65 -13 -72 -150 -9 -167 54 -15 116 -4 116 20 0 10 -14 14 -49 14 -34 0 -51 4 -55 15 -4 12 3 15 37 15 24 0 48 5 55 12 16 16 15 63 0 76 -17 13 -67 21 -95 15z m62 -53 c0 -10 -12 -16 -32 -18 -32 -3 -45 13 -26 32 13 12 58 2 58 -14z"/> <path d="M1560 404 c-22 -10 -36 -11 -38 -4 -2 5 -12 10 -23 10 -17 0 -19 -8 -19 -85 0 -84 0 -85 25 -85 23 0 24 4 27 63 3 59 4 62 31 65 l27 3 0 -66 c0 -66 0 -66 27 -63 26 3 26 4 24 78 -1 56 -6 78 -18 88 -20 15 -20 15 -63 -4z"/> <path d="M890 337 c0 -43 5 -78 12 -85 17 -17 59 -15 86 4 20 14 22 14 22 0 0 -9 9 -16 20 -16 18 0 20 7 20 85 0 84 0 85 -25 85 -24 0 -25 -3 -25 -59 0 -44 -4 -60 -16 -65 -39 -15 -44 -8 -44 59 0 63 -1 65 -25 65 -24 0 -25 -2 -25 -73z"/> </g> </svg> 