 <svg  version="1.0" xmlns="http://www.w3.org/2000/svg"  width="35.000000pt" height="60.000000pt" viewBox="0 0 35.000000 60.000000"  preserveAspectRatio="xMidYMid meet">  <g transform="translate(0.000000,60.000000) scale(0.100000,-0.100000)" fill="#873b95" stroke="none"> <path d="M80 568 c0 -38 17 -79 48 -110 31 -33 66 -40 37 -8 -18 20 -17 20 23 20 23 0 42 5 42 10 0 6 -24 10 -54 10 -30 0 -58 5 -61 10 -4 6 20 10 64 10 41 0 71 4 71 10 0 6 -32 10 -75 10 -46 0 -75 4 -75 11 0 6 28 9 78 8 43 -1 76 2 74 7 -1 5 -35 8 -74 8 -57 -2 -75 2 -85 15 -11 14 -12 13 -13 -11z"/> <path d="M280 570 c0 -45 -30 -89 -98 -144 -122 -99 -133 -164 -50 -306 29 -50 55 -90 58 -90 3 1 29 42 58 92 57 98 64 139 38 203 -18 42 -62 88 -77 80 -6 -4 -3 -12 8 -21 16 -12 15 -13 -19 -14 -58 0 -55 -19 3 -22 34 -2 54 -8 57 -17 4 -12 -7 -13 -62 -7 -43 4 -66 3 -66 -4 0 -6 29 -10 69 -10 39 0 73 -4 76 -10 4 -6 -23 -10 -74 -10 -47 0 -81 -4 -81 -10 0 -6 33 -10 80 -10 44 0 80 -4 80 -9 0 -17 -21 -23 -36 -10 -12 10 -18 9 -31 -4 -14 -14 -18 -14 -39 0 -19 12 -27 13 -39 3 -18 -15 -35 -5 -35 22 0 41 34 89 102 144 70 57 98 99 98 149 0 14 -4 25 -10 25 -5 0 -10 -9 -10 -20z m-72 -347 c12 11 22 13 35 6 9 -6 22 -7 27 -4 16 10 12 -3 -16 -51 -24 -40 -29 -44 -65 -44 -35 0 -41 4 -64 43 -28 49 -32 65 -11 48 10 -9 16 -8 26 4 12 14 15 14 31 -1 17 -16 21 -16 37 -1z"/> </g> </svg> 