<?xml version="1.0" encoding="UTF-8"?>
<svg version="1.1" xmlns="http://www.w3.org/2000/svg" width="2016" height="2016">
<path d="M0 0 C292.05 0 584.1 0 885 0 C885 292.05 885 584.1 885 885 C592.95 885 300.9 885 0 885 C0 592.95 0 300.9 0 0 Z " fill="#FEBA08" transform="translate(1046,1046)"/>
<path d="M0 0 C292.05 0 584.1 0 885 0 C885 292.05 885 584.1 885 885 C592.95 885 300.9 885 0 885 C0 592.95 0 300.9 0 0 Z " fill="#05A6F0" transform="translate(85,1046)"/>
<path d="M0 0 C292.05 0 584.1 0 885 0 C885 292.05 885 584.1 885 885 C592.95 885 300.9 885 0 885 C0 592.95 0 300.9 0 0 Z " fill="#81BC06" transform="translate(1046,85)"/>
<path d="M0 0 C292.05 0 584.1 0 885 0 C885 292.05 885 584.1 885 885 C592.95 885 300.9 885 0 885 C0 592.95 0 300.9 0 0 Z " fill="#F35224" transform="translate(85,85)"/>
</svg>
